<svg width="107" height="100" viewBox="0 0 107 100" fill="none" xmlns="http://www.w3.org/2000/svg">
<path d="M19.0321 85.6291V87.2259H27.6494H38.7256V76.5808C38.6787 74.4092 37.7023 71.813 36.5965 70.1937L20.6289 53.6938L19.2782 53.8503C18.9562 53.9372 18.6408 54.0578 18.3358 54.2084L17.916 54.4479C17.8628 54.4787 17.8059 54.5112 17.7451 54.5455C17.7312 54.5545 17.7174 54.5635 17.7036 54.5727C16.6046 55.4511 14.8223 57.3496 14.7741 60.0809C14.7249 57.8302 15.9787 55.7157 17.7036 54.5727C18.4629 53.9658 18.896 53.8459 18.2058 54.2747C18.2489 54.252 18.2922 54.2299 18.3358 54.2084L18.8831 53.8961L19.2782 53.8503C19.7195 53.7313 20.1731 53.6758 20.6289 53.6938L36.5965 70.1937C38.3653 72.5951 38.7383 74.0025 38.7256 76.5808V87.2259C39.4723 87.5796 40.0276 87.8816 40.432 88.1765L40.6364 88.2904L40.7332 88.42C41.2081 88.8512 41.3834 89.2935 41.3868 89.8872L41.2385 89.0964L40.7332 88.42C40.6437 88.3387 40.5436 88.2579 40.432 88.1765L38.7256 87.2259H27.6494H19.0321V85.6291L17.9676 82.9678L16.3709 80.8388L5.19353 69.6615C5.16463 69.6332 5.13586 69.6044 5.10722 69.5752L4.12902 68.597L3.06451 66.468L2.88454 66.018C2.54199 65.2594 2.24537 64.4964 2 63.8067V38.2585C3.24591 34.6816 4.50604 32.3742 7.84416 31.8182C10.5137 32.1324 11.5022 33.4995 12.5307 35.3359C13.0865 36.1397 13.6574 37.1066 14.2419 38.2585C13.533 37.2186 13.0272 36.2226 12.5307 35.3359C7.00192 27.3405 2.96727 35.4816 2 38.2585V63.8067L2.88454 66.018C3.4912 67.3615 4.24193 68.6912 5.10722 69.5752L5.19353 69.6615L16.3709 80.8388C18.4028 83.1852 18.5735 82.9861 19.0321 85.6291Z" fill="black"/>
<path d="M15.8386 89.8872V100V99.026V93.5065V89.8872ZM15.8386 89.8872L16.9031 88.2904L19.0321 87.2259M19.0321 87.2259V85.6291M19.0321 87.2259H38.7256M19.0321 87.2259H27.6494H38.7256M19.0321 85.6291L17.9676 82.9678L16.3709 80.8388M19.0321 85.6291C18.5735 82.9861 18.4028 83.1852 16.3709 80.8388M16.3709 80.8388L4.12902 68.597L3.06451 66.468L2 63.8067M16.3709 80.8388L5.19353 69.6615C3.79895 68.297 2.6943 65.7583 2 63.8067M2 63.8067V38.2585M2 38.2585C3.24591 34.6816 4.50604 32.3742 7.84416 31.8182C11.8026 32.2841 12.0649 35.0649 14.2419 38.2585M2 38.2585C3.06451 35.2024 7.84416 25.6493 14.2419 38.2585M14.2419 38.2585V51.0326M38.7256 87.2259V76.5808M38.7256 87.2259C40.7723 88.1954 41.3805 88.7764 41.3868 89.8872M38.7256 87.2259L40.6364 88.2904L41.2385 89.0964L41.3868 89.8872M38.7256 76.5808C38.6787 74.4092 37.7023 71.813 36.5965 70.1937M38.7256 76.5808C38.7383 74.0025 38.3653 72.5951 36.5965 70.1937M36.5965 70.1937L20.6289 53.6938M20.6289 53.6938C17.6153 53.5744 14.6995 56.6714 14.7741 60.0809M20.6289 53.6938L18.8831 53.8961L17.7451 54.5455C20.6289 52.9221 14.8613 55.1377 14.7741 60.0809M14.7741 60.0809L24.3547 69.6615M41.3868 89.8872V99.4677V95.1299V91.8831V89.8872Z" stroke="black" stroke-width="4"/>
<path d="M87.3433 85.6291V87.2259H78.7255H67.6485V76.5808C67.6954 74.4092 68.6719 71.813 69.7777 70.1937L85.7464 53.6938L87.0972 53.8503C87.4192 53.9372 87.7347 54.0578 88.0397 54.2084L88.4595 54.4479C88.5127 54.4787 88.5697 54.5112 88.6305 54.5455C88.6443 54.5545 88.6582 54.5635 88.672 54.5727C89.771 55.4511 91.5535 57.3496 91.6016 60.0809C91.6509 57.8302 90.397 55.7157 88.672 54.5727C87.9126 53.9658 87.4795 53.8459 88.1697 54.2747C88.1266 54.252 88.0833 54.2299 88.0397 54.2084L87.4923 53.8961L87.0972 53.8503C86.6559 53.7313 86.2023 53.6758 85.7464 53.6938L69.7777 70.1937C68.0088 72.5951 67.6357 74.0025 67.6485 76.5808V87.2259C66.9017 87.5796 66.3464 87.8816 65.942 88.1765L65.7376 88.2904L65.6408 88.42C65.402 88.6367 65.239 88.8563 65.1354 89.0964C65.033 89.3341 64.9887 89.5919 64.987 89.8872L65.1354 89.0964L65.6408 88.42C65.7302 88.3387 65.8304 88.2579 65.942 88.1765L67.6485 87.2259H78.7255H87.3433V85.6291L88.4079 82.9678L90.0048 80.8388L101.183 69.6615C101.212 69.6332 101.241 69.6044 101.269 69.5752L102.247 68.597L103.312 66.468L103.492 66.018C103.835 65.2594 104.131 64.4964 104.377 63.8067V38.2585C103.131 34.6816 101.87 32.3742 98.5321 31.8182C95.8623 32.1324 94.8737 33.4995 93.8452 35.3359C93.2894 36.1397 92.7184 37.1066 92.1339 38.2585C92.8428 37.2186 93.3487 36.2226 93.8452 35.3359C99.3744 27.3405 103.409 35.4816 104.377 38.2585V63.8067L103.492 66.018C102.885 67.3615 102.135 68.6912 101.269 69.5752L101.183 69.6615L90.0048 80.8388C87.9727 83.1852 87.802 82.9861 87.3433 85.6291Z" fill="black"/>
<path d="M90.5371 89.8872V100V99.026V93.5065V89.8872ZM90.5371 89.8872L89.4725 88.2904L87.3433 87.2259M87.3433 87.2259V85.6291M87.3433 87.2259H67.6485M87.3433 87.2259H78.7255H67.6485M87.3433 85.6291L88.4079 82.9678L90.0048 80.8388M87.3433 85.6291C87.802 82.9861 87.9727 83.1852 90.0048 80.8388M90.0048 80.8388L102.247 68.597L103.312 66.468L104.377 63.8067M90.0048 80.8388L101.183 69.6615C102.578 68.297 103.682 65.7583 104.377 63.8067M104.377 63.8067V38.2585M104.377 38.2585C103.131 34.6816 101.87 32.3742 98.5321 31.8182C94.5733 32.2841 94.311 35.0649 92.1339 38.2585M104.377 38.2585C103.312 35.2024 98.5321 25.6493 92.1339 38.2585M92.1339 38.2585V51.0326M67.6485 87.2259V76.5808M67.6485 87.2259C65.6016 88.1954 64.9934 88.7764 64.987 89.8872M67.6485 87.2259L65.7376 88.2904L65.1354 89.0964L64.987 89.8872M67.6485 76.5808C67.6954 74.4092 68.6719 71.813 69.7777 70.1937M67.6485 76.5808C67.6357 74.0025 68.0088 72.5951 69.7777 70.1937M69.7777 70.1937L85.7464 53.6938M85.7464 53.6938C88.7603 53.5744 91.6762 56.6714 91.6016 60.0809M85.7464 53.6938L87.4923 53.8961L88.6305 54.5455C85.7464 52.9221 91.5145 55.1377 91.6016 60.0809M91.6016 60.0809L82.0204 69.6615M64.987 89.8872V99.4677V95.1299V91.8831V89.8872Z" stroke="black" stroke-width="4"/>
<path d="M65.6896 46.0507H40.1414C37.8415 44.7852 37.1009 43.4149 36.4156 40.1959V36.4701L37.4801 35.4056L46.5284 30.083C45.3825 28.6158 44.9317 27.2939 44.3994 24.2282C44.2519 22.4294 44.2559 21.2561 44.3994 18.9057C44.5748 17.0969 44.9817 15.8972 45.9962 13.5831C47.9485 11.3359 49.4553 10.5064 53.4477 10.3896C56.3049 10.5253 57.844 11.0524 60.367 13.5831C61.3538 15.2744 61.7268 16.4149 61.9638 18.9057V24.2282C61.7114 26.7176 61.2693 28.0037 59.8348 30.083L68.8831 35.4056L69.9476 36.4701V40.1959C69.5287 43.7756 68.6149 45.0767 65.6896 46.0507Z" fill="black" stroke="black"/>
<path d="M83.5617 25.4581L83.5834 25.5505L83.6138 25.6404C84.3398 27.7881 84.666 31.2944 84.7829 35.136C84.8655 37.8507 84.8424 40.5655 84.8225 42.8912C84.8171 43.5225 84.812 44.1252 84.8092 44.6914C84.7322 44.7742 84.6457 44.8657 84.5501 44.9649C84.0583 45.4754 83.3293 46.1859 82.3988 46.9645C80.5244 48.5329 77.9019 50.3192 74.8112 51.3494C71.4651 52.4647 65.9992 53.993 61.3272 55.2524C59.0003 55.8796 56.8853 56.4362 55.3519 56.836C54.5854 57.0359 53.9645 57.1965 53.5355 57.307C53.4725 57.3233 53.4136 57.3384 53.359 57.3525C53.0596 57.2764 52.6284 57.1652 52.0907 57.0216C50.9866 56.7268 49.436 56.2967 47.6557 55.7566C44.0755 54.6705 39.6437 53.1628 36.0468 51.4425C32.3356 49.6676 28.457 47.7151 25.5019 46.204C24.0254 45.4489 22.7816 44.8052 21.9073 44.3504C21.7962 44.2926 21.691 44.2379 21.5921 44.1863C21.5861 43.644 21.5773 43.0847 21.5683 42.5102C21.5353 40.418 21.4992 38.1231 21.5868 35.7096C21.7157 32.1567 22.1121 28.6151 23.1175 25.6404C23.4067 24.7849 23.6784 23.9379 23.9463 23.1027C25.305 18.8671 26.566 14.9362 29.5106 11.7462L29.552 11.7013L29.5905 11.6541C32.342 8.28214 35.379 6.68728 39.8095 4.95149L39.8993 4.91633L39.9852 4.87269C43.648 3.01344 49.2352 2 53.3656 2C55.4014 2 58.0881 2.24801 60.7523 2.7458C63.4373 3.24747 65.9541 3.97626 67.7201 4.87269C71.7362 6.91134 74.3584 8.24427 77.1408 11.6541L77.1812 11.7036L77.2248 11.7505C81.0709 15.8925 82.2769 19.9976 83.5617 25.4581Z" stroke="black" stroke-width="4"/>
</svg>
