<svg width="104" height="104" viewBox="0 0 104 104" fill="none" xmlns="http://www.w3.org/2000/svg">
<path d="M12.0488 82.2575C12.0488 82.2575 21.3571 91.6996 21.7802 92.1288C22.2033 92.5579 23.8957 92.5579 24.3189 92.1288C24.742 91.6996 28.1268 87.4077 28.973 86.9785C29.8192 86.5494 42.9355 92.1288 42.9355 92.5579C42.9355 92.9871 42.5124 100.283 42.9355 100.712C43.3586 101.142 44.2049 102 44.628 102C45.0511 102 58.5905 102 59.0136 102C59.4367 102 60.2829 101.142 60.2829 100.712C60.2829 100.283 60.2829 92.9871 60.2829 92.5579C60.2829 92.1288 74.2454 86.9785 74.6685 86.9785C75.0916 86.9785 80.592 92.5579 81.0151 92.5579C81.4382 92.5579 84.4 89.5536 84.4 89.5536" stroke="black" stroke-width="4" stroke-linecap="round"/>
<path d="M80.592 11.1164C80.592 11.1164 90.1481 20.3003 90.5825 20.7177C91.0169 21.1351 91.0625 22.8513 90.651 23.2919C90.2394 23.7325 86.1013 27.2805 85.7011 28.1501C85.301 29.0198 91.1533 42.1691 91.5762 42.1575C91.9992 42.146 99.178 41.5201 99.6123 41.9375C100.047 42.355 100.915 43.1899 100.927 43.6189C100.938 44.0479 101.304 57.7768 101.315 58.2058C101.326 58.6349 100.503 59.5161 100.08 59.5277C99.6575 59.5392 92.4673 59.7361 92.0443 59.7477C91.6214 59.7593 86.9227 74.0562 86.9341 74.4852C86.9455 74.9142 92.5923 80.341 92.6037 80.7701C92.6151 81.1991 89.7344 84.2834 89.7344 84.2834" stroke="black" stroke-width="4" stroke-linecap="round"/>
<path d="M11.2026 80.97C11.2026 80.97 17.126 75.3906 17.1261 74.9614C17.1261 74.5322 11.6257 60.3691 11.2026 60.3691C10.7795 60.3691 2.74043 60.3691 2.31733 60.3691C1.89423 60.3691 1.89422 43.6309 2.31733 43.6309C2.74043 43.6309 10.7795 43.6309 11.2026 43.6309C11.6257 43.6309 17.1261 29.4678 17.1261 29.0386C17.1261 28.6094 11.2026 22.6009 11.2026 22.1717C11.2026 21.7425 22.2033 10.5837 22.6264 10.5837C23.0495 10.5837 28.5499 16.5923 28.973 16.5923C29.3961 16.5923 43.3587 11.0129 43.3587 10.5837C43.3587 10.1545 42.9355 2 43.3587 2C43.7818 2 59.4367 2 59.8598 2C60.2829 2 59.8598 10.1545 59.8598 10.5837C59.8598 11.0129 73.8223 16.5923 74.2454 16.5923C74.6685 16.5923 79.7458 11.8712 79.7458 11.8712L80.592 11.0129" stroke="black" stroke-width="4" stroke-linecap="round"/>
<path d="M81.1306 51.3563C81.1306 68.0561 67.7919 81.5451 51.3977 81.5451C35.0034 81.5451 21.6647 68.0561 21.6647 51.3563C21.6647 34.6564 35.0034 21.1674 51.3977 21.1674C67.7919 21.1674 81.1306 34.6564 81.1306 51.3563Z" stroke="black" stroke-width="4"/>
<path d="M69.1681 44.0601C68.745 45.7769 51.3976 66.3777 48.0127 66.3777C44.6279 66.3777 35.7426 56.5065 34.4733 54.3606C33.204 52.2146 34.4733 50.0687 36.1657 48.7812C37.8582 47.4936 40.3967 47.7082 41.6661 48.352C42.9355 48.9958 46.3203 53.5022 47.5896 53.5022C48.8589 53.5022 60.7059 38.4807 61.9752 37.6224C63.2446 36.764 66.2062 37.1932 67.8987 38.9099C69.5912 40.6267 69.5911 42.3434 69.1681 44.0601Z" stroke="black" stroke-width="4" stroke-linecap="round"/>
</svg>
