<?xml version="1.0" standalone="no"?>
<!DOCTYPE svg PUBLIC "-//W3C//DTD SVG 20010904//EN"
 "http://www.w3.org/TR/2001/REC-SVG-20010904/DTD/svg10.dtd">
<svg version="1.0" xmlns="http://www.w3.org/2000/svg"
 width="260.000000pt" height="260.000000pt" viewBox="0 0 260.000000 260.000000"
 preserveAspectRatio="xMidYMid meet">
<metadata>
Created by potrace 1.14, written by Peter Selinger 2001-2017
</metadata>
<g transform="translate(0.000000,260.000000) scale(0.100000,-0.100000)"
fill="#000000" stroke="none">
<path d="M370 1305 l0 -465 100 0 100 0 0 165 0 165 73 0 72 0 86 -163 86
-162 106 -3 c59 -1 107 -1 107 1 0 2 -43 82 -95 178 -52 95 -95 175 -94 178 0
3 21 20 46 36 131 85 152 311 40 432 -81 88 -143 103 -422 103 l-205 0 0 -465z
m430 287 c42 -23 70 -73 70 -127 0 -52 -17 -84 -59 -112 -30 -20 -46 -23 -137
-23 l-104 0 0 140 0 140 98 0 c75 0 105 -4 132 -18z"/>
<path d="M1210 1305 l0 -465 95 0 95 0 0 307 c0 168 3 303 7 299 4 -4 60 -139
124 -299 l117 -292 67 0 67 0 117 292 c64 160 120 295 124 299 4 4 7 -131 7
-299 l0 -307 95 0 95 0 0 465 0 466 -122 -3 -121 -3 -126 -308 c-70 -170 -130
-309 -135 -309 -5 1 -66 139 -135 309 l-127 308 -122 3 -122 3 0 -466z"/>
</g>
</svg>
